<svg width="199" height="127" viewBox="0 0 199 127" fill="none" xmlns="http://www.w3.org/2000/svg">
  <path d="M54.1969 124.525C49.7156 123.387 45.2971 121.837 41.5777 118.978C38.307 116.579 35.9468 113.142 34.8827 109.229C33.6459 104.408 35.6445 100.573 35.4204 95.8688C35.4194 94.7867 35.1691 93.7194 34.6888 92.7498C34.2085 91.7801 33.5112 90.9341 32.651 90.2774C29.2274 88.0373 24.8715 90.7164 20.8294 91.0211C16.4199 91.3437 12.1985 88.6286 9.50975 84.9906C6.821 81.3526 5.43181 76.9261 4.24876 72.4458C0.215625 57.401 -4.40004 39.0677 8.31778 27.2219C19.1804 17.1144 31.2708 15.2864 42.0707 7.38316C45.0731 5.17886 47.6632 2.1502 51.1765 1.01221C57.0649 -0.887428 63.267 -0.511071 65.0147 5.61796C68.4204 17.5982 84.1765 34.0319 83.7015 49.9548C83.4954 56.6663 82.0256 62.6878 78.4764 68.1896C76.8183 70.7613 73.78 74.9459 73.0989 77.9746C72.2743 81.5588 75.456 84.7218 77.4277 87.2218C81.909 92.9566 82.3751 100.914 82.6261 108.288C82.8322 114.238 84.7681 121.191 80.1344 124.713C77.5801 126.648 74.2281 127.034 71.0644 126.998C66.6289 126.88 62.2157 126.325 57.8894 125.34C56.6615 125.08 55.4337 124.811 54.2148 124.498L54.1969 124.525Z" fill="#A2D9D1"/>
  <path d="M67.4169 76.9524L67.6858 76.6657C68.4118 75.9309 69.2364 75.3036 69.9623 74.5688C71.6019 72.9098 73.0398 71.0631 74.2463 69.067C77.2532 63.8474 78.7141 57.8808 78.4588 51.8628C78.172 40.2857 73.8878 24.9811 62.8281 19.8198C59.9327 18.5567 56.8571 17.7554 53.7133 17.4452C38.4232 15.5724 24.5672 22.8216 15.6226 35.6083C8.66766 45.5724 5.31563 58.1352 11.7686 69.3718C14.7739 74.5992 19.5094 78.6142 25.1586 80.7247C29.6399 82.3824 36.7203 83.1889 39.2029 88.0097C41.3718 92.2122 39.4001 97.0509 40.3412 101.549C41.336 106.316 44.6611 109.766 48.757 111.943C62.4517 119.219 72.1401 107.929 72.3373 97.4362C72.3252 94.4608 71.5475 91.5385 70.0789 88.9506C68.5732 86.352 66.0367 84.5958 65.947 81.3431C65.8777 80.5496 65.9725 79.7502 66.2254 78.9949C66.4782 78.2395 66.8838 77.5443 67.4169 76.9524Z" fill="#F1616B"/>
  <path d="M57.1643 84.0501C54.7674 84.0484 52.4237 84.7574 50.4298 86.0875C48.436 87.4176 46.8814 89.3089 45.9629 91.5225C45.0444 93.736 44.8032 96.1722 45.2697 98.5228C45.7363 100.873 46.8897 103.033 48.584 104.728C50.2782 106.423 52.4372 107.578 54.788 108.046C57.1388 108.514 59.5756 108.275 61.7903 107.358C64.005 106.441 65.898 104.889 67.2299 102.896C68.5617 100.904 69.2727 98.5612 69.2727 96.1647C69.2727 92.9533 67.9972 89.8732 65.7267 87.6016C63.4562 85.3299 60.3765 84.0525 57.1643 84.0501ZM69.2727 52.0608C69.2709 57.5935 67.6277 63.0013 64.5511 67.6001C61.4744 72.1988 57.1024 75.7819 51.9884 77.8959C46.8745 80.0099 41.2482 80.5598 35.8215 79.4761C30.3949 78.3924 25.4117 75.7237 21.5024 71.8078C17.5931 67.8918 14.9335 62.9046 13.86 57.477C12.7865 52.0494 13.3474 46.4255 15.4716 41.3167C17.5959 36.2079 21.1881 31.8439 25.7937 28.7767C30.3994 25.7096 35.8116 24.0771 41.3454 24.086C48.7617 24.086 55.8743 27.0315 61.1183 32.2744C66.3624 37.5174 69.3085 44.6283 69.3085 52.0429L69.2727 52.0608ZM160.95 88.7455L160.601 90.0178C160.097 89.663 159.486 89.4923 158.871 89.534C156.845 89.534 154.936 91.5769 154.936 94.4891V102.043H153.583V88.6021H154.721L154.883 91.3798C155.189 90.4722 155.778 89.6867 156.563 89.1384C157.349 88.5901 158.29 88.3079 159.247 88.3332C159.849 88.3054 160.444 88.4651 160.95 88.7902V88.7455ZM140.076 94.6505H149.541C149.353 91.4426 147.749 89.4802 144.925 89.4802C142.102 89.4802 140.265 91.3888 140.076 94.6505ZM150.751 95.8691H140.076C140.265 99.1576 142.102 101.12 145.096 101.12C147.193 101.12 148.815 100.224 149.487 98.6468L150.616 99.2383C150.093 100.23 149.292 101.049 148.312 101.594C147.332 102.14 146.215 102.389 145.096 102.312C141.098 102.312 138.723 99.6236 138.723 95.3046C138.723 90.9856 140.991 88.2885 144.925 88.2885C148.681 88.2885 150.805 91.0393 150.805 94.973C150.805 95.2725 150.787 95.5717 150.751 95.8691ZM137.944 101.174C137.116 101.938 136.022 102.347 134.896 102.312C132.799 102.312 131.392 101.174 131.392 98.6737V89.7132H128.703V88.6021H131.392V85.2329L132.745 84.8565V88.6021H137.809V89.767H132.763V98.4587C132.763 100.152 133.597 101.039 135.129 101.039C135.568 101.048 136.005 100.964 136.409 100.792C136.814 100.621 137.178 100.366 137.477 100.045L137.961 101.147L137.944 101.174ZM125.593 97.724V95.215L121.901 95.896C118.988 96.4336 117.715 97.3745 117.715 98.8888C117.715 100.403 118.907 101.12 120.87 101.12C123.003 101.12 125.593 99.991 125.593 97.724ZM129.232 100.959L129.178 102.043C128.767 102.237 128.315 102.329 127.861 102.312C126.749 102.312 125.781 101.855 125.647 100.018C124.751 101.532 122.68 102.312 120.762 102.312C118.181 102.312 116.371 101.12 116.371 98.8888C116.371 96.8368 117.993 95.4658 121.497 94.8386L125.62 94.1128V92.93C125.62 90.7974 124.329 89.4802 121.954 89.4802C121.018 89.4043 120.083 89.6447 119.3 90.1629C118.517 90.6812 117.93 91.4474 117.634 92.3387L116.613 91.5769C117.392 89.4802 119.301 88.2885 121.99 88.2885C125.037 88.2885 127 89.7759 127 92.7688V99.7222C127 100.69 127.439 101.147 128.246 101.147C128.605 101.16 128.962 101.095 129.295 100.959H129.232ZM100.355 102.043H98.7056L93.1488 84.2472H94.6097L99.5391 100.932L104.209 84.2472H105.768L110.437 100.959L115.421 84.2472H116.801L111.253 102.043H109.577L105.992 89.5608L104.997 85.6989L104.002 89.5608L100.417 102.043H100.355ZM198.781 68.7992V77.7598H194.201V70.0537C194.201 68.1362 193.421 67.5178 192.283 67.5178C190.966 67.5178 189.854 68.4139 189.854 70.6451V77.7598H185.275V64.319H189.37L189.505 66.9354C189.88 66.0355 190.526 65.2746 191.353 64.7577C192.18 64.2408 193.147 63.9935 194.121 64.0501C196.899 64.0501 198.781 65.6989 198.781 68.8261V68.7992ZM184.002 64.319L183.518 68.1988C182.996 67.9234 182.414 67.7847 181.824 67.7957C181.409 67.78 180.996 67.8528 180.611 68.0094C180.227 68.1659 179.88 68.4026 179.594 68.7035C179.309 69.0045 179.09 69.363 178.954 69.7549C178.818 70.1469 178.766 70.5633 178.804 70.9766V77.7688H174.215V64.3279H178.266L178.454 67.2132C179.126 65.215 180.444 64.0591 182.55 64.0591C183.051 64.0385 183.549 64.14 184.002 64.3547V64.319ZM162.868 69.8745H167.932C167.69 68.1451 166.857 67.2311 165.423 67.2311C163.989 67.2311 163.101 68.0375 162.868 69.8745ZM172.055 72.3566H162.868C162.885 72.7057 162.972 73.0479 163.125 73.3624C163.277 73.677 163.492 73.9573 163.756 74.1867C164.019 74.4161 164.327 74.5898 164.66 74.6972C164.992 74.8046 165.343 74.8436 165.691 74.8117C167.045 74.8117 167.878 74.2651 168.174 73.3243L171.893 74.5071C171.114 76.8548 168.819 78.0375 165.691 78.0375C160.977 78.0375 158.414 75.4838 158.414 71.0304C158.414 66.577 160.95 64.0232 165.449 64.0232C169.949 64.0232 172.189 66.586 172.189 70.8423C172.189 71.35 172.144 71.8568 172.055 72.3566ZM157.661 77.016C156.512 77.7058 155.192 78.0597 153.852 78.0375C150.805 78.0375 148.923 76.8548 148.896 73.7276V67.5537H146.574V64.292H148.896V61.2723L153.476 60.0089V64.292H157.526V67.5537H153.476V72.93C153.439 73.1738 153.461 73.4226 153.538 73.6566C153.615 73.8905 153.746 74.1032 153.92 74.2774C154.095 74.4516 154.307 74.5827 154.541 74.6599C154.775 74.7371 155.024 74.7584 155.268 74.7222C155.962 74.7417 156.643 74.5305 157.204 74.1218L157.67 76.9533L157.661 77.016ZM133.041 75.6719L135.407 73.0824C135.842 73.7292 136.442 74.248 137.145 74.5851C137.847 74.9222 138.628 75.0654 139.404 74.9999C140.668 74.9999 141.421 74.6146 141.421 74.0501C141.421 73.4856 140.776 73.2168 138.974 72.8405C134.869 72.034 133.39 70.7078 133.39 68.5035C133.39 66.2992 135.488 64.0232 139.888 64.0232C143.124 64.0232 144.898 64.9193 146.064 66.5591L143.688 68.8798C143.291 68.2836 142.742 67.8036 142.098 67.4887C141.454 67.1739 140.738 67.0355 140.023 67.0877C138.67 67.0877 137.97 67.5716 137.97 68.1093C137.97 68.6469 138.562 69.0053 140.453 69.3548C144.441 70.0537 146.037 71.3172 146.037 73.638C146.037 76.12 143.957 78.0555 139.619 78.0555C136.653 78.0555 134.412 77.3565 133.041 75.6899V75.6719ZM122.68 69.8745H127.753C127.511 68.1451 126.669 67.2311 125.244 67.2311C123.819 67.2311 122.922 68.0375 122.68 69.8745ZM131.876 72.3566H122.68C122.697 72.7065 122.784 73.0495 122.937 73.3647C123.09 73.6799 123.306 73.9607 123.571 74.1902C123.836 74.4198 124.144 74.5932 124.478 74.7001C124.812 74.8069 125.164 74.8449 125.512 74.8117C126.857 74.8117 127.699 74.2651 127.995 73.3243L131.715 74.5071C130.935 76.8548 128.64 78.0375 125.512 78.0375C120.789 78.0375 118.235 75.4838 118.235 71.0304C118.235 66.577 120.762 64.0232 125.27 64.0232C129.779 64.0232 132.01 66.586 132.01 70.8423C132.01 71.35 131.965 71.8568 131.876 72.3566ZM102.909 77.7329H97.7107L92.5842 59.9462H97.5763L100.516 74.095L103.725 59.9462H107.928L111.19 74.0681L114.13 59.9462H118.925L113.78 77.7329H108.735L106.637 69.1128L105.822 64.767H105.768L104.988 69.1128L102.909 77.7329ZM189.693 40.0179L189.209 43.8978C188.688 43.6223 188.105 43.4836 187.515 43.4946C187.1 43.4774 186.686 43.5493 186.301 43.7054C185.916 43.8614 185.569 44.098 185.283 44.3993C184.996 44.7006 184.778 45.0596 184.642 45.4522C184.506 45.8448 184.456 46.2619 184.495 46.6755V53.4677H179.906V40.0269H183.948L184.145 42.9121C184.818 40.9139 186.135 39.758 188.241 39.758C188.742 39.7375 189.24 39.8389 189.693 40.0537V40.0179ZM168.55 45.5734H173.623C173.381 43.844 172.548 42.8852 171.114 42.8852C169.68 42.8852 168.792 43.6917 168.55 45.5734ZM177.746 48.0555H168.55C168.568 48.4047 168.657 48.7467 168.81 49.0608C168.964 49.375 169.179 49.6548 169.444 49.8834C169.709 50.112 170.017 50.2846 170.35 50.3909C170.683 50.4972 171.035 50.5348 171.383 50.5017C172.736 50.5017 173.57 49.9641 173.865 49.0232L177.585 50.2061C176.805 52.5537 174.511 53.7365 171.383 53.7365C166.668 53.7365 164.105 51.1828 164.105 46.7293C164.105 42.2759 166.642 39.7221 171.141 39.7221C175.64 39.7221 177.881 42.2849 177.881 46.5412C177.88 47.049 177.835 47.5556 177.746 48.0555ZM163.352 52.7149C162.203 53.4047 160.883 53.7586 159.543 53.7365C156.496 53.7365 154.614 52.5537 154.587 49.4265V43.2526H152.266V39.991H154.587V36.9713L159.167 35.7078V39.991H163.236V43.2526H159.185V48.629C159.146 48.8731 159.166 49.1227 159.243 49.3576C159.319 49.5925 159.45 49.806 159.625 49.9807C159.8 50.1554 160.013 50.2864 160.248 50.3629C160.483 50.4394 160.733 50.4594 160.977 50.4211C161.67 50.4439 162.351 50.2359 162.913 49.8297L163.379 52.6612L163.352 52.7149ZM146.494 48.862V47.6971L144.307 48.2168C143.177 48.4857 142.721 48.8619 142.721 49.6146C142.721 50.3673 143.205 50.7706 144.038 50.7706C145.176 50.7706 146.494 50.0985 146.494 48.862ZM152.83 50.7437L152.481 53.3064C151.914 53.6026 151.282 53.7506 150.643 53.7365C148.851 53.7365 147.569 53.1182 147.166 51.6666C146.413 52.957 144.845 53.7365 142.371 53.7365C139.682 53.7365 138.186 52.5537 138.186 50.3673C138.186 48.1809 139.619 46.7025 143.446 45.9498L146.494 45.3584V44.8744C146.525 44.6115 146.498 44.3449 146.413 44.0938C146.329 43.8427 146.191 43.6133 146.007 43.4222C145.824 43.2311 145.6 43.0831 145.353 42.9887C145.105 42.8943 144.84 42.8559 144.576 42.8763C144.273 42.8403 143.967 42.8663 143.675 42.9526C143.384 43.0389 143.113 43.1838 142.879 43.3783C142.645 43.5728 142.453 43.813 142.314 44.0841C142.176 44.3552 142.095 44.6516 142.075 44.9552L138.347 43.8709C138.804 41.3081 140.91 39.7221 144.576 39.7221C148.734 39.7221 151.02 41.4247 151.02 44.9014V49.8028C151.02 50.5017 151.342 50.8512 151.997 50.8512C152.278 50.8605 152.56 50.8242 152.83 50.7437ZM127.619 45.5734H132.682C132.44 43.844 131.607 42.8852 130.182 42.8852C128.757 42.8852 127.861 43.6917 127.619 45.5734ZM136.814 48.0555H127.619C127.635 48.4051 127.723 48.7477 127.876 49.0625C128.029 49.3772 128.245 49.6576 128.509 49.8864C128.774 50.1153 129.083 50.2878 129.417 50.3935C129.751 50.4993 130.102 50.5361 130.451 50.5017C131.795 50.5017 132.629 49.9641 132.924 49.0232L136.653 50.2061C135.864 52.5537 133.579 53.7365 130.451 53.7365C125.727 53.7365 123.164 51.1828 123.164 46.7293C123.164 42.2759 125.701 39.7221 130.2 39.7221C134.699 39.7221 136.949 42.2849 136.949 46.5412C136.948 47.049 136.903 47.5556 136.814 48.0555ZM122.707 39.991L122.223 43.8709C121.699 43.5954 121.113 43.4567 120.52 43.4677C120.105 43.4505 119.691 43.5224 119.306 43.6785C118.921 43.8345 118.574 44.0711 118.288 44.3724C118.001 44.6737 117.783 45.0327 117.647 45.4253C117.511 45.8179 117.461 46.2351 117.5 46.6487V53.4408H112.92V40H116.962L117.15 42.8852C117.366 41.9689 117.892 41.1549 118.638 40.5804C119.384 40.006 120.305 39.706 121.246 39.7311C121.75 39.7098 122.251 39.8114 122.707 40.0269V39.991ZM110.249 43.8172V53.4408H107.014L106.879 51.3709C105.902 52.8494 104.235 53.7097 101.78 53.7097C96.9848 53.7097 93.4983 50.4748 93.4983 44.5788C93.4983 38.8351 96.8951 35.3852 102.371 35.3852C106.413 35.3852 108.788 36.7293 110.222 39.9372L105.929 41.6397C105.78 40.8593 105.348 40.1613 104.717 39.6787C104.085 39.1961 103.298 38.9629 102.506 39.0233C99.8169 39.0233 98.2754 40.878 98.2754 44.5519C98.2754 48.2257 99.7542 50.1522 102.64 50.1522C104.746 50.1522 106.306 49.2115 106.306 47.2133V46.9444H101.887V43.8172H110.249Z" fill="#292A68"/>
</svg>
